# xmcd
#
# Track frame offsets:
#       150
#       12552
#       29827
#       52671
#       70837
#       86274
#       120303
#       135661
#       169648
#       191152
#       210913
#
# Disc length: 3375 seconds
#
# Revision: 0
# Processed by: cddbd v1.5.1PL0 Copyright (c) Steve Scherf et al.
# Submitted via: CD-DA_X-Tractor v0.24
#
DISCID=8b0d2d0b
DTITLE=Mikey Jr. - The New York City Sessions
DYEAR=2004
DGENRE=Blues
TTITLE0=Rockin'
TTITLE1=Low Down
TTITLE2=Flip The Chicken
TTITLE3=Close To Me
TTITLE4=Howlin' For My Baby
TTITLE5=Sittin' Here Drinkin'
TTITLE6=Cool Disposition
TTITLE7=Ships On The Ocean
TTITLE8=Little Baby
TTITLE9=Hey Rich Girl
TTITLE10=Lonesome Cabin
EXTD=
EXTT0=
EXTT1=
EXTT2=
EXTT3=
EXTT4=
EXTT5=
EXTT6=
EXTT7=
EXTT8=
EXTT9=
EXTT10=
PLAYORDER=
